<svg xmlns="http://www.w3.org/2000/svg" width="900" height="6672" viewBox="0 0 900 6672"><rect width="100%" height="100%" fill="#FFFFFF" rx="12"/><text x="240" y="30" fill="#1E293B" font-family="system-ui,-apple-system,sans-serif" font-size="16" font-weight="600">PBMO vs Native Memory Allocation (allocs/op)</text><rect x="240" y="14" width="14" height="14" rx="3" fill="#3B82F6"/><text x="258" y="26" fill="#64748B" font-family="system-ui,sans-serif" font-size="12">PBMO</text><rect x="330" y="14" width="14" height="14" rx="3" fill="#10B981"/><text x="348" y="26" fill="#64748B" font-family="system-ui,sans-serif" font-size="12">Native</text><text x="230" y="70" fill="#334155" font-family="monospace" font-size="11" text-anchor="end">Account_ModelToPB</text><rect x="240" y="50" width="1.8" height="26" rx="4" fill="#3B82F6" opacity="0.9"/><text x="247" y="70" fill="#475569" font-family="monospace" font-size="10">3 (192B)</text><rect x="240" y="81" width="1.8" height="26" rx="4" fill="#10B981" opacity="0.9"/><text x="247" y="101" fill="#475569" font-family="monospace" font-size="10">3 (192B)</text><text x="230" y="142" fill="#334155" font-family="monospace" font-size="11" text-anchor="end">Account_PBToModel</text><rect x="240" y="122" width="0.6" height="26" rx="4" fill="#3B82F6" opacity="0.9"/><text x="246" y="142" fill="#475569" font-family="monospace" font-size="10">1 (96B)</text><rect x="240" y="153" width="0.6" height="26" rx="4" fill="#10B981" opacity="0.9"/><text x="246" y="173" fill="#475569" font-family="monospace" font-size="10">1 (96B)</text><text x="230" y="214" fill="#334155" font-family="monospace" font-size="11" text-anchor="end">AutoEnumConverter_Convert_Int...</text><rect x="240" y="194" width="0.0" height="26" rx="4" fill="#3B82F6" opacity="0.9"/><text x="244" y="214" fill="#475569" font-family="monospace" font-size="10">0</text><rect x="240" y="225" width="0.0" height="26" rx="4" fill="#10B981" opacity="0.9"/><text x="244" y="245" fill="#475569" font-family="monospace" font-size="10">0</text><text x="230" y="286" fill="#334155" font-family="monospace" font-size="11" text-anchor="end">Comprehensive_ModelToPB</text><rect x="240" y="266" width="4.8" height="26" rx="4" fill="#3B82F6" opacity="0.9"/><text x="250" y="286" fill="#475569" font-family="monospace" font-size="10">8 (408B)</text><rect x="240" y="297" width="6.6" height="26" rx="4" fill="#10B981" opacity="0.9"/><text x="252" y="317" fill="#475569" font-family="monospace" font-size="10">11 (752B)</text><text x="230" y="358" fill="#334155" font-family="monospace" font-size="11" text-anchor="end">Comprehensive_PBToModel</text><rect x="240" y="338" width="3.0" height="26" rx="4" fill="#3B82F6" opacity="0.9"/><text x="248" y="358" fill="#475569" font-family="monospace" font-size="10">5 (264B)</text><rect x="240" y="369" width="2.4" height="26" rx="4" fill="#10B981" opacity="0.9"/><text x="248" y="389" fill="#475569" font-family="monospace" font-size="10">4 (240B)</text><text x="230" y="430" fill="#334155" font-family="monospace" font-size="11" text-anchor="end">Config_ModelToPB</text><rect x="240" y="410" width="0.6" height="26" rx="4" fill="#3B82F6" opacity="0.9"/><text x="246" y="430" fill="#475569" font-family="monospace" font-size="10">1 (24B)</text><rect x="240" y="441" width="3.6" height="26" rx="4" fill="#10B981" opacity="0.9"/><text x="249" y="461" fill="#475569" font-family="monospace" font-size="10">6 (408B)</text><text x="230" y="502" fill="#334155" font-family="monospace" font-size="11" text-anchor="end">Config_PBToModel</text><rect x="240" y="482" width="0.6" height="26" rx="4" fill="#3B82F6" opacity="0.9"/><text x="246" y="502" fill="#475569" font-family="monospace" font-size="10">1 (64B)</text><rect x="240" y="513" width="0.6" height="26" rx="4" fill="#10B981" opacity="0.9"/><text x="246" y="533" fill="#475569" font-family="monospace" font-size="10">1 (64B)</text><text x="230" y="574" fill="#334155" font-family="monospace" font-size="11" text-anchor="end">DeepNested4_Batch100_PBToModel</text><rect x="240" y="554" width="181.0" height="26" rx="4" fill="#3B82F6" opacity="0.9"/><text x="427" y="574" fill="#475569" font-family="monospace" font-size="10">302 (23424B)</text><rect x="240" y="585" width="240.4" height="26" rx="4" fill="#10B981" opacity="0.9"/><text x="486" y="605" fill="#475569" font-family="monospace" font-size="10">401 (23296B)</text><text x="230" y="646" fill="#334155" font-family="monospace" font-size="11" text-anchor="end">DeepNested4_ModelToPB</text><rect x="240" y="626" width="3.0" height="26" rx="4" fill="#3B82F6" opacity="0.9"/><text x="248" y="646" fill="#475569" font-family="monospace" font-size="10">5 (272B)</text><rect x="240" y="657" width="3.0" height="26" rx="4" fill="#10B981" opacity="0.9"/><text x="248" y="677" fill="#475569" font-family="monospace" font-size="10">5 (272B)</text><text x="230" y="718" fill="#334155" font-family="monospace" font-size="11" text-anchor="end">DeepNested4_ModelToPB_Parallel</text><rect x="240" y="698" width="3.0" height="26" rx="4" fill="#3B82F6" opacity="0.9"/><text x="248" y="718" fill="#475569" font-family="monospace" font-size="10">5 (272B)</text><rect x="240" y="729" width="3.0" height="26" rx="4" fill="#10B981" opacity="0.9"/><text x="248" y="749" fill="#475569" font-family="monospace" font-size="10">5 (272B)</text><text x="230" y="790" fill="#334155" font-family="monospace" font-size="11" text-anchor="end">DeepNested4_PBToModel</text><rect x="240" y="770" width="2.4" height="26" rx="4" fill="#3B82F6" opacity="0.9"/><text x="248" y="790" fill="#475569" font-family="monospace" font-size="10">4 (224B)</text><rect x="240" y="801" width="2.4" height="26" rx="4" fill="#10B981" opacity="0.9"/><text x="248" y="821" fill="#475569" font-family="monospace" font-size="10">4 (224B)</text><text x="230" y="862" fill="#334155" font-family="monospace" font-size="11" text-anchor="end">DeepNested4_PBToModel_Parallel</text><rect x="240" y="842" width="2.4" height="26" rx="4" fill="#3B82F6" opacity="0.9"/><text x="248" y="862" fill="#475569" font-family="monospace" font-size="10">4 (224B)</text><rect x="240" y="873" width="2.4" height="26" rx="4" fill="#10B981" opacity="0.9"/><text x="248" y="893" fill="#475569" font-family="monospace" font-size="10">4 (224B)</text><text x="230" y="934" fill="#334155" font-family="monospace" font-size="11" text-anchor="end">Enterprise_ModelToPB</text><rect x="240" y="914" width="3.6" height="26" rx="4" fill="#3B82F6" opacity="0.9"/><text x="249" y="934" fill="#475569" font-family="monospace" font-size="10">6 (464B)</text><rect x="240" y="945" width="3.6" height="26" rx="4" fill="#10B981" opacity="0.9"/><text x="249" y="965" fill="#475569" font-family="monospace" font-size="10">6 (464B)</text><text x="230" y="1006" fill="#334155" font-family="monospace" font-size="11" text-anchor="end">Enterprise_PBToModel</text><rect x="240" y="986" width="2.4" height="26" rx="4" fill="#3B82F6" opacity="0.9"/><text x="248" y="1006" fill="#475569" font-family="monospace" font-size="10">4 (368B)</text><rect x="240" y="1017" width="2.4" height="26" rx="4" fill="#10B981" opacity="0.9"/><text x="248" y="1037" fill="#475569" font-family="monospace" font-size="10">4 (368B)</text><text x="230" y="1078" fill="#334155" font-family="monospace" font-size="11" text-anchor="end">Enterprise_PBToModel_Parallel</text><rect x="240" y="1058" width="2.4" height="26" rx="4" fill="#3B82F6" opacity="0.9"/><text x="248" y="1078" fill="#475569" font-family="monospace" font-size="10">4 (368B)</text><rect x="240" y="1089" width="2.4" height="26" rx="4" fill="#10B981" opacity="0.9"/><text x="248" y="1109" fill="#475569" font-family="monospace" font-size="10">4 (368B)</text><text x="230" y="1150" fill="#334155" font-family="monospace" font-size="11" text-anchor="end">EnumMapper_Map_Internal</text><rect x="240" y="1130" width="0.0" height="26" rx="4" fill="#3B82F6" opacity="0.9"/><text x="244" y="1150" fill="#475569" font-family="monospace" font-size="10">0</text><rect x="240" y="1161" width="0.0" height="26" rx="4" fill="#10B981" opacity="0.9"/><text x="244" y="1181" fill="#475569" font-family="monospace" font-size="10">0</text><text x="230" y="1222" fill="#334155" font-family="monospace" font-size="11" text-anchor="end">Full_ModelToPB</text><rect x="240" y="1202" width="3.6" height="26" rx="4" fill="#3B82F6" opacity="0.9"/><text x="249" y="1222" fill="#475569" font-family="monospace" font-size="10">6 (416B)</text><rect x="240" y="1233" width="3.6" height="26" rx="4" fill="#10B981" opacity="0.9"/><text x="249" y="1253" fill="#475569" font-family="monospace" font-size="10">6 (416B)</text><text x="230" y="1294" fill="#334155" font-family="monospace" font-size="11" text-anchor="end">Full_PBToModel</text><rect x="240" y="1274" width="2.4" height="26" rx="4" fill="#3B82F6" opacity="0.9"/><text x="248" y="1294" fill="#475569" font-family="monospace" font-size="10">4 (184B)</text><rect x="240" y="1305" width="2.4" height="26" rx="4" fill="#10B981" opacity="0.9"/><text x="248" y="1325" fill="#475569" font-family="monospace" font-size="10">4 (184B)</text><text x="230" y="1366" fill="#334155" font-family="monospace" font-size="11" text-anchor="end">Full_PBToModel_Parallel</text><rect x="240" y="1346" width="2.4" height="26" rx="4" fill="#3B82F6" opacity="0.9"/><text x="248" y="1366" fill="#475569" font-family="monospace" font-size="10">4 (184B)</text><rect x="240" y="1377" width="2.4" height="26" rx="4" fill="#10B981" opacity="0.9"/><text x="248" y="1397" fill="#475569" font-family="monospace" font-size="10">4 (184B)</text><text x="230" y="1438" fill="#334155" font-family="monospace" font-size="11" text-anchor="end">GenericEnumMapper_Map_Internal</text><rect x="240" y="1418" width="0.0" height="26" rx="4" fill="#3B82F6" opacity="0.9"/><text x="244" y="1438" fill="#475569" font-family="monospace" font-size="10">0</text><rect x="240" y="1449" width="0.0" height="26" rx="4" fill="#10B981" opacity="0.9"/><text x="244" y="1469" fill="#475569" font-family="monospace" font-size="10">0</text><text x="230" y="1510" fill="#334155" font-family="monospace" font-size="11" text-anchor="end">Huge100_ModelToPB</text><rect x="240" y="1490" width="4.8" height="26" rx="4" fill="#3B82F6" opacity="0.9"/><text x="250" y="1510" fill="#475569" font-family="monospace" font-size="10">8 (1408B)</text><rect x="240" y="1521" width="6.0" height="26" rx="4" fill="#10B981" opacity="0.9"/><text x="251" y="1541" fill="#475569" font-family="monospace" font-size="10">10 (1536B)</text><text x="230" y="1582" fill="#334155" font-family="monospace" font-size="11" text-anchor="end">Huge100_PBToModel</text><rect x="240" y="1562" width="4.2" height="26" rx="4" fill="#3B82F6" opacity="0.9"/><text x="250" y="1582" fill="#475569" font-family="monospace" font-size="10">7 (1328B)</text><rect x="240" y="1593" width="4.2" height="26" rx="4" fill="#10B981" opacity="0.9"/><text x="250" y="1613" fill="#475569" font-family="monospace" font-size="10">7 (1328B)</text><text x="230" y="1654" fill="#334155" font-family="monospace" font-size="11" text-anchor="end">Huge30_ModelToPB</text><rect x="240" y="1634" width="1.8" height="26" rx="4" fill="#3B82F6" opacity="0.9"/><text x="247" y="1654" fill="#475569" font-family="monospace" font-size="10">3 (544B)</text><rect x="240" y="1665" width="1.8" height="26" rx="4" fill="#10B981" opacity="0.9"/><text x="247" y="1685" fill="#475569" font-family="monospace" font-size="10">3 (544B)</text><text x="230" y="1726" fill="#334155" font-family="monospace" font-size="11" text-anchor="end">Huge30_PBToModel</text><rect x="240" y="1706" width="0.6" height="26" rx="4" fill="#3B82F6" opacity="0.9"/><text x="246" y="1726" fill="#475569" font-family="monospace" font-size="10">1 (448B)</text><rect x="240" y="1737" width="0.6" height="26" rx="4" fill="#10B981" opacity="0.9"/><text x="246" y="1757" fill="#475569" font-family="monospace" font-size="10">1 (448B)</text><text x="230" y="1798" fill="#334155" font-family="monospace" font-size="11" text-anchor="end">Huge50_ModelToPB</text><rect x="240" y="1778" width="3.0" height="26" rx="4" fill="#3B82F6" opacity="0.9"/><text x="248" y="1798" fill="#475569" font-family="monospace" font-size="10">5 (992B)</text><rect x="240" y="1809" width="3.0" height="26" rx="4" fill="#10B981" opacity="0.9"/><text x="248" y="1829" fill="#475569" font-family="monospace" font-size="10">5 (992B)</text><text x="230" y="1870" fill="#334155" font-family="monospace" font-size="11" text-anchor="end">Huge50_PBToModel</text><rect x="240" y="1850" width="1.8" height="26" rx="4" fill="#3B82F6" opacity="0.9"/><text x="247" y="1870" fill="#475569" font-family="monospace" font-size="10">3 (770B)</text><rect x="240" y="1881" width="1.8" height="26" rx="4" fill="#10B981" opacity="0.9"/><text x="247" y="1901" fill="#475569" font-family="monospace" font-size="10">3 (770B)</text><text x="230" y="1942" fill="#334155" font-family="monospace" font-size="11" text-anchor="end">Large_Batch100_PBToModel</text><rect x="240" y="1922" width="121.1" height="26" rx="4" fill="#3B82F6" opacity="0.9"/><text x="367" y="1942" fill="#475569" font-family="monospace" font-size="10">202 (28960B)</text><rect x="240" y="1953" width="180.4" height="26" rx="4" fill="#10B981" opacity="0.9"/><text x="426" y="1973" fill="#475569" font-family="monospace" font-size="10">301 (30496B)</text><text x="230" y="2014" fill="#334155" font-family="monospace" font-size="11" text-anchor="end">Large_ModelToPB</text><rect x="240" y="1994" width="3.0" height="26" rx="4" fill="#3B82F6" opacity="0.9"/><text x="248" y="2014" fill="#475569" font-family="monospace" font-size="10">5 (448B)</text><rect x="240" y="2025" width="3.0" height="26" rx="4" fill="#10B981" opacity="0.9"/><text x="248" y="2045" fill="#475569" font-family="monospace" font-size="10">5 (448B)</text><text x="230" y="2086" fill="#334155" font-family="monospace" font-size="11" text-anchor="end">Large_PBToModel</text><rect x="240" y="2066" width="1.8" height="26" rx="4" fill="#3B82F6" opacity="0.9"/><text x="247" y="2086" fill="#475569" font-family="monospace" font-size="10">3 (296B)</text><rect x="240" y="2097" width="1.8" height="26" rx="4" fill="#10B981" opacity="0.9"/><text x="247" y="2117" fill="#475569" font-family="monospace" font-size="10">3 (296B)</text><text x="230" y="2158" fill="#334155" font-family="monospace" font-size="11" text-anchor="end">Large_PBToModel_Parallel</text><rect x="240" y="2138" width="1.8" height="26" rx="4" fill="#3B82F6" opacity="0.9"/><text x="247" y="2158" fill="#475569" font-family="monospace" font-size="10">3 (296B)</text><rect x="240" y="2169" width="1.8" height="26" rx="4" fill="#10B981" opacity="0.9"/><text x="247" y="2189" fill="#475569" font-family="monospace" font-size="10">3 (296B)</text><text x="230" y="2230" fill="#334155" font-family="monospace" font-size="11" text-anchor="end">List_ModelToPB</text><rect x="240" y="2210" width="3.0" height="26" rx="4" fill="#3B82F6" opacity="0.9"/><text x="248" y="2230" fill="#475569" font-family="monospace" font-size="10">5 (200B)</text><rect x="240" y="2241" width="3.0" height="26" rx="4" fill="#10B981" opacity="0.9"/><text x="248" y="2261" fill="#475569" font-family="monospace" font-size="10">5 (144B)</text><text x="230" y="2302" fill="#334155" font-family="monospace" font-size="11" text-anchor="end">List_PBToModel</text><rect x="240" y="2282" width="3.0" height="26" rx="4" fill="#3B82F6" opacity="0.9"/><text x="248" y="2302" fill="#475569" font-family="monospace" font-size="10">5 (200B)</text><rect x="240" y="2313" width="3.0" height="26" rx="4" fill="#10B981" opacity="0.9"/><text x="248" y="2333" fill="#475569" font-family="monospace" font-size="10">5 (144B)</text><text x="230" y="2374" fill="#334155" font-family="monospace" font-size="11" text-anchor="end">Mapped_ModelToPB</text><rect x="240" y="2354" width="0.6" height="26" rx="4" fill="#3B82F6" opacity="0.9"/><text x="246" y="2374" fill="#475569" font-family="monospace" font-size="10">1 (48B)</text><rect x="240" y="2385" width="0.6" height="26" rx="4" fill="#10B981" opacity="0.9"/><text x="246" y="2405" fill="#475569" font-family="monospace" font-size="10">1 (48B)</text><text x="230" y="2446" fill="#334155" font-family="monospace" font-size="11" text-anchor="end">Mapped_PBToModel</text><rect x="240" y="2426" width="0.6" height="26" rx="4" fill="#3B82F6" opacity="0.9"/><text x="246" y="2446" fill="#475569" font-family="monospace" font-size="10">1 (48B)</text><rect x="240" y="2457" width="0.6" height="26" rx="4" fill="#10B981" opacity="0.9"/><text x="246" y="2477" fill="#475569" font-family="monospace" font-size="10">1 (48B)</text><text x="230" y="2518" fill="#334155" font-family="monospace" font-size="11" text-anchor="end">Mapped_WithFieldMapping_Model...</text><rect x="240" y="2498" width="0.6" height="26" rx="4" fill="#3B82F6" opacity="0.9"/><text x="246" y="2518" fill="#475569" font-family="monospace" font-size="10">1 (48B)</text><rect x="240" y="2529" width="0.6" height="26" rx="4" fill="#10B981" opacity="0.9"/><text x="246" y="2549" fill="#475569" font-family="monospace" font-size="10">1 (48B)</text><text x="230" y="2590" fill="#334155" font-family="monospace" font-size="11" text-anchor="end">Mapped_WithFieldMapping_PBToM...</text><rect x="240" y="2570" width="0.6" height="26" rx="4" fill="#3B82F6" opacity="0.9"/><text x="246" y="2590" fill="#475569" font-family="monospace" font-size="10">1 (48B)</text><rect x="240" y="2601" width="0.6" height="26" rx="4" fill="#10B981" opacity="0.9"/><text x="246" y="2621" fill="#475569" font-family="monospace" font-size="10">1 (48B)</text><text x="230" y="2662" fill="#334155" font-family="monospace" font-size="11" text-anchor="end">Medium_ModelToPB</text><rect x="240" y="2642" width="0.6" height="26" rx="4" fill="#3B82F6" opacity="0.9"/><text x="246" y="2662" fill="#475569" font-family="monospace" font-size="10">1 (96B)</text><rect x="240" y="2673" width="0.6" height="26" rx="4" fill="#10B981" opacity="0.9"/><text x="246" y="2693" fill="#475569" font-family="monospace" font-size="10">1 (96B)</text><text x="230" y="2734" fill="#334155" font-family="monospace" font-size="11" text-anchor="end">Medium_PBToModel</text><rect x="240" y="2714" width="0.6" height="26" rx="4" fill="#3B82F6" opacity="0.9"/><text x="246" y="2734" fill="#475569" font-family="monospace" font-size="10">1 (96B)</text><rect x="240" y="2745" width="0.6" height="26" rx="4" fill="#10B981" opacity="0.9"/><text x="246" y="2765" fill="#475569" font-family="monospace" font-size="10">1 (96B)</text><text x="230" y="2806" fill="#334155" font-family="monospace" font-size="11" text-anchor="end">Medium_PBToModel_Parallel</text><rect x="240" y="2786" width="0.6" height="26" rx="4" fill="#3B82F6" opacity="0.9"/><text x="246" y="2806" fill="#475569" font-family="monospace" font-size="10">1 (96B)</text><rect x="240" y="2817" width="0.6" height="26" rx="4" fill="#10B981" opacity="0.9"/><text x="246" y="2837" fill="#475569" font-family="monospace" font-size="10">1 (96B)</text><text x="230" y="2878" fill="#334155" font-family="monospace" font-size="11" text-anchor="end">Member_ModelToPB</text><rect x="240" y="2858" width="2.4" height="26" rx="4" fill="#3B82F6" opacity="0.9"/><text x="248" y="2878" fill="#475569" font-family="monospace" font-size="10">4 (320B)</text><rect x="240" y="2889" width="2.4" height="26" rx="4" fill="#10B981" opacity="0.9"/><text x="248" y="2909" fill="#475569" font-family="monospace" font-size="10">4 (320B)</text><text x="230" y="2950" fill="#334155" font-family="monospace" font-size="11" text-anchor="end">Member_PBToModel</text><rect x="240" y="2930" width="1.2" height="26" rx="4" fill="#3B82F6" opacity="0.9"/><text x="247" y="2950" fill="#475569" font-family="monospace" font-size="10">2 (184B)</text><rect x="240" y="2961" width="1.2" height="26" rx="4" fill="#10B981" opacity="0.9"/><text x="247" y="2981" fill="#475569" font-family="monospace" font-size="10">2 (184B)</text><text x="230" y="3022" fill="#334155" font-family="monospace" font-size="11" text-anchor="end">Metadata_ModelToPB</text><rect x="240" y="3002" width="0.6" height="26" rx="4" fill="#3B82F6" opacity="0.9"/><text x="246" y="3022" fill="#475569" font-family="monospace" font-size="10">1 (24B)</text><rect x="240" y="3033" width="0.6" height="26" rx="4" fill="#10B981" opacity="0.9"/><text x="246" y="3053" fill="#475569" font-family="monospace" font-size="10">1 (24B)</text><text x="230" y="3094" fill="#334155" font-family="monospace" font-size="11" text-anchor="end">Metadata_PBToModel</text><rect x="240" y="3074" width="0.6" height="26" rx="4" fill="#3B82F6" opacity="0.9"/><text x="246" y="3094" fill="#475569" font-family="monospace" font-size="10">1 (24B)</text><rect x="240" y="3105" width="0.6" height="26" rx="4" fill="#10B981" opacity="0.9"/><text x="246" y="3125" fill="#475569" font-family="monospace" font-size="10">1 (24B)</text><text x="230" y="3166" fill="#334155" font-family="monospace" font-size="11" text-anchor="end">NamedSlice_ModelToPB</text><rect x="240" y="3146" width="0.6" height="26" rx="4" fill="#3B82F6" opacity="0.9"/><text x="246" y="3166" fill="#475569" font-family="monospace" font-size="10">1 (64B)</text><rect x="240" y="3177" width="0.6" height="26" rx="4" fill="#10B981" opacity="0.9"/><text x="246" y="3197" fill="#475569" font-family="monospace" font-size="10">1 (64B)</text><text x="230" y="3238" fill="#334155" font-family="monospace" font-size="11" text-anchor="end">NamedSlice_PBToModel</text><rect x="240" y="3218" width="0.6" height="26" rx="4" fill="#3B82F6" opacity="0.9"/><text x="246" y="3238" fill="#475569" font-family="monospace" font-size="10">1 (64B)</text><rect x="240" y="3249" width="0.6" height="26" rx="4" fill="#10B981" opacity="0.9"/><text x="246" y="3269" fill="#475569" font-family="monospace" font-size="10">1 (64B)</text><text x="230" y="3310" fill="#334155" font-family="monospace" font-size="11" text-anchor="end">NewBidiConverter_Internal</text><rect x="240" y="3290" width="4.2" height="26" rx="4" fill="#3B82F6" opacity="0.9"/><text x="250" y="3310" fill="#475569" font-family="monospace" font-size="10">7 (448B)</text><rect x="240" y="3321" width="0.0" height="26" rx="4" fill="#10B981" opacity="0.9"/><text x="244" y="3341" fill="#475569" font-family="monospace" font-size="10">0</text><text x="230" y="3382" fill="#334155" font-family="monospace" font-size="11" text-anchor="end">NewBidiConverter_WithOptions_...</text><rect x="240" y="3362" width="4.8" height="26" rx="4" fill="#3B82F6" opacity="0.9"/><text x="250" y="3382" fill="#475569" font-family="monospace" font-size="10">8 (736B)</text><rect x="240" y="3393" width="1.2" height="26" rx="4" fill="#10B981" opacity="0.9"/><text x="247" y="3413" fill="#475569" font-family="monospace" font-size="10">2 (336B)</text><text x="230" y="3454" fill="#334155" font-family="monospace" font-size="11" text-anchor="end">Organization_ModelToPB</text><rect x="240" y="3434" width="3.6" height="26" rx="4" fill="#3B82F6" opacity="0.9"/><text x="249" y="3454" fill="#475569" font-family="monospace" font-size="10">6 (512B)</text><rect x="240" y="3465" width="3.6" height="26" rx="4" fill="#10B981" opacity="0.9"/><text x="249" y="3485" fill="#475569" font-family="monospace" font-size="10">6 (512B)</text><text x="230" y="3526" fill="#334155" font-family="monospace" font-size="11" text-anchor="end">Organization_PBToModel</text><rect x="240" y="3506" width="1.8" height="26" rx="4" fill="#3B82F6" opacity="0.9"/><text x="247" y="3526" fill="#475569" font-family="monospace" font-size="10">3 (304B)</text><rect x="240" y="3537" width="1.8" height="26" rx="4" fill="#10B981" opacity="0.9"/><text x="247" y="3557" fill="#475569" font-family="monospace" font-size="10">3 (304B)</text><text x="230" y="3598" fill="#334155" font-family="monospace" font-size="11" text-anchor="end">Outer_ModelToPB</text><rect x="240" y="3578" width="1.8" height="26" rx="4" fill="#3B82F6" opacity="0.9"/><text x="247" y="3598" fill="#475569" font-family="monospace" font-size="10">3 (72B)</text><rect x="240" y="3609" width="1.8" height="26" rx="4" fill="#10B981" opacity="0.9"/><text x="247" y="3629" fill="#475569" font-family="monospace" font-size="10">3 (72B)</text><text x="230" y="3670" fill="#334155" font-family="monospace" font-size="11" text-anchor="end">Outer_PBToModel</text><rect x="240" y="3650" width="1.8" height="26" rx="4" fill="#3B82F6" opacity="0.9"/><text x="247" y="3670" fill="#475569" font-family="monospace" font-size="10">3 (72B)</text><rect x="240" y="3681" width="1.8" height="26" rx="4" fill="#10B981" opacity="0.9"/><text x="247" y="3701" fill="#475569" font-family="monospace" font-size="10">3 (72B)</text><text x="230" y="3742" fill="#334155" font-family="monospace" font-size="11" text-anchor="end">Outer_PBToModel_Parallel</text><rect x="240" y="3722" width="1.8" height="26" rx="4" fill="#3B82F6" opacity="0.9"/><text x="247" y="3742" fill="#475569" font-family="monospace" font-size="10">3 (72B)</text><rect x="240" y="3753" width="1.8" height="26" rx="4" fill="#10B981" opacity="0.9"/><text x="247" y="3773" fill="#475569" font-family="monospace" font-size="10">3 (72B)</text><text x="230" y="3814" fill="#334155" font-family="monospace" font-size="11" text-anchor="end">Product_ModelToPB</text><rect x="240" y="3794" width="6.0" height="26" rx="4" fill="#3B82F6" opacity="0.9"/><text x="251" y="3814" fill="#475569" font-family="monospace" font-size="10">10 (584B)</text><rect x="240" y="3825" width="5.4" height="26" rx="4" fill="#10B981" opacity="0.9"/><text x="251" y="3845" fill="#475569" font-family="monospace" font-size="10">9 (560B)</text><text x="230" y="3886" fill="#334155" font-family="monospace" font-size="11" text-anchor="end">Product_PBToModel</text><rect x="240" y="3866" width="2.4" height="26" rx="4" fill="#3B82F6" opacity="0.9"/><text x="248" y="3886" fill="#475569" font-family="monospace" font-size="10">4 (329B)</text><rect x="240" y="3897" width="1.8" height="26" rx="4" fill="#10B981" opacity="0.9"/><text x="247" y="3917" fill="#475569" font-family="monospace" font-size="10">3 (305B)</text><text x="230" y="3958" fill="#334155" font-family="monospace" font-size="11" text-anchor="end">Registry_Lookup_Internal</text><rect x="240" y="3938" width="1.8" height="26" rx="4" fill="#3B82F6" opacity="0.9"/><text x="247" y="3958" fill="#475569" font-family="monospace" font-size="10">3 (56B)</text><rect x="240" y="3969" width="0.0" height="26" rx="4" fill="#10B981" opacity="0.9"/><text x="244" y="3989" fill="#475569" font-family="monospace" font-size="10">0</text><text x="230" y="4030" fill="#334155" font-family="monospace" font-size="11" text-anchor="end">Registry_Register_Internal</text><rect x="240" y="4010" width="4.8" height="26" rx="4" fill="#3B82F6" opacity="0.9"/><text x="250" y="4030" fill="#475569" font-family="monospace" font-size="10">8 (176B)</text><rect x="240" y="4041" width="0.0" height="26" rx="4" fill="#10B981" opacity="0.9"/><text x="244" y="4061" fill="#475569" font-family="monospace" font-size="10">0</text><text x="230" y="4102" fill="#334155" font-family="monospace" font-size="11" text-anchor="end">SafeBatchConvert100_PBToModel...</text><rect x="240" y="4082" width="2.4" height="26" rx="4" fill="#3B82F6" opacity="0.9"/><text x="248" y="4102" fill="#475569" font-family="monospace" font-size="10">4 (10672B)</text><rect x="240" y="4113" width="60.5" height="26" rx="4" fill="#10B981" opacity="0.9"/><text x="306" y="4133" fill="#475569" font-family="monospace" font-size="10">101 (5696B)</text><text x="230" y="4174" fill="#334155" font-family="monospace" font-size="11" text-anchor="end">SafeConverter_SafeConvertPBTo...</text><rect x="240" y="4154" width="0.6" height="26" rx="4" fill="#3B82F6" opacity="0.9"/><text x="246" y="4174" fill="#475569" font-family="monospace" font-size="10">1 (48B)</text><rect x="240" y="4185" width="0.6" height="26" rx="4" fill="#10B981" opacity="0.9"/><text x="246" y="4205" fill="#475569" font-family="monospace" font-size="10">1 (48B)</text><text x="230" y="4246" fill="#334155" font-family="monospace" font-size="11" text-anchor="end">ScoreBoard_ModelToPB</text><rect x="240" y="4226" width="3.6" height="26" rx="4" fill="#3B82F6" opacity="0.9"/><text x="249" y="4246" fill="#475569" font-family="monospace" font-size="10">6 (168B)</text><rect x="240" y="4257" width="3.0" height="26" rx="4" fill="#10B981" opacity="0.9"/><text x="248" y="4277" fill="#475569" font-family="monospace" font-size="10">5 (144B)</text><text x="230" y="4318" fill="#334155" font-family="monospace" font-size="11" text-anchor="end">ScoreBoard_PBToModel</text><rect x="240" y="4298" width="1.8" height="26" rx="4" fill="#3B82F6" opacity="0.9"/><text x="247" y="4318" fill="#475569" font-family="monospace" font-size="10">3 (152B)</text><rect x="240" y="4329" width="1.2" height="26" rx="4" fill="#10B981" opacity="0.9"/><text x="247" y="4349" fill="#475569" font-family="monospace" font-size="10">2 (128B)</text><text x="230" y="4390" fill="#334155" font-family="monospace" font-size="11" text-anchor="end">ServiceConfig_ModelToPB</text><rect x="240" y="4370" width="2.4" height="26" rx="4" fill="#3B82F6" opacity="0.9"/><text x="248" y="4390" fill="#475569" font-family="monospace" font-size="10">4 (272B)</text><rect x="240" y="4401" width="2.4" height="26" rx="4" fill="#10B981" opacity="0.9"/><text x="248" y="4421" fill="#475569" font-family="monospace" font-size="10">4 (272B)</text><text x="230" y="4462" fill="#334155" font-family="monospace" font-size="11" text-anchor="end">ServiceConfig_PBToModel</text><rect x="240" y="4442" width="1.8" height="26" rx="4" fill="#3B82F6" opacity="0.9"/><text x="247" y="4462" fill="#475569" font-family="monospace" font-size="10">3 (136B)</text><rect x="240" y="4473" width="1.8" height="26" rx="4" fill="#10B981" opacity="0.9"/><text x="247" y="4493" fill="#475569" font-family="monospace" font-size="10">3 (136B)</text><text x="230" y="4534" fill="#334155" font-family="monospace" font-size="11" text-anchor="end">Simple_Batch1000_PBToModel</text><rect x="240" y="4514" width="1.2" height="26" rx="4" fill="#3B82F6" opacity="0.9"/><text x="247" y="4534" fill="#475569" font-family="monospace" font-size="10">2 (57344B)</text><rect x="240" y="4545" width="600.0" height="26" rx="4" fill="#10B981" opacity="0.9"/><text x="846" y="4565" fill="#475569" font-family="monospace" font-size="10">1001 (56192B)</text><text x="230" y="4606" fill="#334155" font-family="monospace" font-size="11" text-anchor="end">Simple_Batch100_PBToModel</text><rect x="240" y="4586" width="1.2" height="26" rx="4" fill="#3B82F6" opacity="0.9"/><text x="247" y="4606" fill="#475569" font-family="monospace" font-size="10">2 (5760B)</text><rect x="240" y="4617" width="60.5" height="26" rx="4" fill="#10B981" opacity="0.9"/><text x="306" y="4637" fill="#475569" font-family="monospace" font-size="10">101 (5696B)</text><text x="230" y="4678" fill="#334155" font-family="monospace" font-size="11" text-anchor="end">Simple_BatchConvert100_ModelT...</text><rect x="240" y="4658" width="2.4" height="26" rx="4" fill="#3B82F6" opacity="0.9"/><text x="248" y="4678" fill="#475569" font-family="monospace" font-size="10">4 (4936B)</text><rect x="240" y="4689" width="0.6" height="26" rx="4" fill="#10B981" opacity="0.9"/><text x="246" y="4709" fill="#475569" font-family="monospace" font-size="10">1 (4864B)</text><text x="230" y="4750" fill="#334155" font-family="monospace" font-size="11" text-anchor="end">Simple_BatchConvert100_PBToMo...</text><rect x="240" y="4730" width="2.4" height="26" rx="4" fill="#3B82F6" opacity="0.9"/><text x="248" y="4750" fill="#475569" font-family="monospace" font-size="10">4 (4936B)</text><rect x="240" y="4761" width="0.6" height="26" rx="4" fill="#10B981" opacity="0.9"/><text x="246" y="4781" fill="#475569" font-family="monospace" font-size="10">1 (4864B)</text><text x="230" y="4822" fill="#334155" font-family="monospace" font-size="11" text-anchor="end">Simple_ModelToPB</text><rect x="240" y="4802" width="0.6" height="26" rx="4" fill="#3B82F6" opacity="0.9"/><text x="246" y="4822" fill="#475569" font-family="monospace" font-size="10">1 (48B)</text><rect x="240" y="4833" width="0.6" height="26" rx="4" fill="#10B981" opacity="0.9"/><text x="246" y="4853" fill="#475569" font-family="monospace" font-size="10">1 (48B)</text><text x="230" y="4894" fill="#334155" font-family="monospace" font-size="11" text-anchor="end">Simple_PBToModel</text><rect x="240" y="4874" width="0.6" height="26" rx="4" fill="#3B82F6" opacity="0.9"/><text x="246" y="4894" fill="#475569" font-family="monospace" font-size="10">1 (48B)</text><rect x="240" y="4905" width="0.6" height="26" rx="4" fill="#10B981" opacity="0.9"/><text x="246" y="4925" fill="#475569" font-family="monospace" font-size="10">1 (48B)</text><text x="230" y="4966" fill="#334155" font-family="monospace" font-size="11" text-anchor="end">Simple_PBToModel_Parallel</text><rect x="240" y="4946" width="0.6" height="26" rx="4" fill="#3B82F6" opacity="0.9"/><text x="246" y="4966" fill="#475569" font-family="monospace" font-size="10">1 (48B)</text><rect x="240" y="4977" width="0.6" height="26" rx="4" fill="#10B981" opacity="0.9"/><text x="246" y="4997" fill="#475569" font-family="monospace" font-size="10">1 (48B)</text><text x="230" y="5038" fill="#334155" font-family="monospace" font-size="11" text-anchor="end">Simple_PBToModel_Parallel_Int...</text><rect x="240" y="5018" width="0.6" height="26" rx="4" fill="#3B82F6" opacity="0.9"/><text x="246" y="5038" fill="#475569" font-family="monospace" font-size="10">1 (48B)</text><rect x="240" y="5049" width="0.6" height="26" rx="4" fill="#10B981" opacity="0.9"/><text x="246" y="5069" fill="#475569" font-family="monospace" font-size="10">1 (48B)</text><text x="230" y="5110" fill="#334155" font-family="monospace" font-size="11" text-anchor="end">Simple_WithTransformer_PBToMo...</text><rect x="240" y="5090" width="2.4" height="26" rx="4" fill="#3B82F6" opacity="0.9"/><text x="248" y="5110" fill="#475569" font-family="monospace" font-size="10">4 (96B)</text><rect x="240" y="5121" width="1.8" height="26" rx="4" fill="#10B981" opacity="0.9"/><text x="247" y="5141" fill="#475569" font-family="monospace" font-size="10">3 (80B)</text><text x="230" y="5182" fill="#334155" font-family="monospace" font-size="11" text-anchor="end">Store_ModelToPB</text><rect x="240" y="5162" width="2.4" height="26" rx="4" fill="#3B82F6" opacity="0.9"/><text x="248" y="5182" fill="#475569" font-family="monospace" font-size="10">4 (368B)</text><rect x="240" y="5193" width="2.4" height="26" rx="4" fill="#10B981" opacity="0.9"/><text x="248" y="5213" fill="#475569" font-family="monospace" font-size="10">4 (368B)</text><text x="230" y="5254" fill="#334155" font-family="monospace" font-size="11" text-anchor="end">Store_PBToModel</text><rect x="240" y="5234" width="1.2" height="26" rx="4" fill="#3B82F6" opacity="0.9"/><text x="247" y="5254" fill="#475569" font-family="monospace" font-size="10">2 (288B)</text><rect x="240" y="5265" width="1.2" height="26" rx="4" fill="#10B981" opacity="0.9"/><text x="247" y="5285" fill="#475569" font-family="monospace" font-size="10">2 (288B)</text><text x="230" y="5326" fill="#334155" font-family="monospace" font-size="11" text-anchor="end">TimePtr_ModelToPB</text><rect x="240" y="5306" width="1.2" height="26" rx="4" fill="#3B82F6" opacity="0.9"/><text x="247" y="5326" fill="#475569" font-family="monospace" font-size="10">2 (96B)</text><rect x="240" y="5337" width="1.2" height="26" rx="4" fill="#10B981" opacity="0.9"/><text x="247" y="5357" fill="#475569" font-family="monospace" font-size="10">2 (96B)</text><text x="230" y="5398" fill="#334155" font-family="monospace" font-size="11" text-anchor="end">TimePtr_PBToModel</text><rect x="240" y="5378" width="1.8" height="26" rx="4" fill="#3B82F6" opacity="0.9"/><text x="247" y="5398" fill="#475569" font-family="monospace" font-size="10">3 (80B)</text><rect x="240" y="5409" width="1.8" height="26" rx="4" fill="#10B981" opacity="0.9"/><text x="247" y="5429" fill="#475569" font-family="monospace" font-size="10">3 (80B)</text><text x="230" y="5470" fill="#334155" font-family="monospace" font-size="11" text-anchor="end">TimeZeroValidValue_ModelToPB_...</text><rect x="240" y="5450" width="1.8" height="26" rx="4" fill="#3B82F6" opacity="0.9"/><text x="247" y="5470" fill="#475569" font-family="monospace" font-size="10">3 (160B)</text><rect x="240" y="5481" width="1.8" height="26" rx="4" fill="#10B981" opacity="0.9"/><text x="247" y="5501" fill="#475569" font-family="monospace" font-size="10">3 (160B)</text><text x="230" y="5542" fill="#334155" font-family="monospace" font-size="11" text-anchor="end">TimeZeroZeroValue_ModelToPB_I...</text><rect x="240" y="5522" width="0.6" height="26" rx="4" fill="#3B82F6" opacity="0.9"/><text x="246" y="5542" fill="#475569" font-family="monospace" font-size="10">1 (32B)</text><rect x="240" y="5553" width="0.6" height="26" rx="4" fill="#10B981" opacity="0.9"/><text x="246" y="5573" fill="#475569" font-family="monospace" font-size="10">1 (32B)</text><text x="230" y="5614" fill="#334155" font-family="monospace" font-size="11" text-anchor="end">TimeZero_ModelToPB</text><rect x="240" y="5594" width="1.8" height="26" rx="4" fill="#3B82F6" opacity="0.9"/><text x="247" y="5614" fill="#475569" font-family="monospace" font-size="10">3 (160B)</text><rect x="240" y="5625" width="1.8" height="26" rx="4" fill="#10B981" opacity="0.9"/><text x="247" y="5645" fill="#475569" font-family="monospace" font-size="10">3 (160B)</text><text x="230" y="5686" fill="#334155" font-family="monospace" font-size="11" text-anchor="end">TimeZero_PBToModel</text><rect x="240" y="5666" width="0.6" height="26" rx="4" fill="#3B82F6" opacity="0.9"/><text x="246" y="5686" fill="#475569" font-family="monospace" font-size="10">1 (64B)</text><rect x="240" y="5697" width="0.6" height="26" rx="4" fill="#10B981" opacity="0.9"/><text x="246" y="5717" fill="#475569" font-family="monospace" font-size="10">1 (64B)</text><text x="230" y="5758" fill="#334155" font-family="monospace" font-size="11" text-anchor="end">TransformerRegistry_Apply_Int...</text><rect x="240" y="5738" width="1.8" height="26" rx="4" fill="#3B82F6" opacity="0.9"/><text x="247" y="5758" fill="#475569" font-family="monospace" font-size="10">3 (48B)</text><rect x="240" y="5769" width="1.8" height="26" rx="4" fill="#10B981" opacity="0.9"/><text x="247" y="5789" fill="#475569" font-family="monospace" font-size="10">3 (48B)</text><text x="230" y="5830" fill="#334155" font-family="monospace" font-size="11" text-anchor="end">TransformerRegistry_Count_Int...</text><rect x="240" y="5810" width="0.0" height="26" rx="4" fill="#3B82F6" opacity="0.9"/><text x="244" y="5830" fill="#475569" font-family="monospace" font-size="10">0</text><rect x="240" y="5841" width="0.0" height="26" rx="4" fill="#10B981" opacity="0.9"/><text x="244" y="5861" fill="#475569" font-family="monospace" font-size="10">0</text><text x="230" y="5902" fill="#334155" font-family="monospace" font-size="11" text-anchor="end">UserProfile_ModelToPB</text><rect x="240" y="5882" width="1.8" height="26" rx="4" fill="#3B82F6" opacity="0.9"/><text x="247" y="5902" fill="#475569" font-family="monospace" font-size="10">3 (448B)</text><rect x="240" y="5913" width="1.8" height="26" rx="4" fill="#10B981" opacity="0.9"/><text x="247" y="5933" fill="#475569" font-family="monospace" font-size="10">3 (448B)</text><text x="230" y="5974" fill="#334155" font-family="monospace" font-size="11" text-anchor="end">UserProfile_PBToModel</text><rect x="240" y="5954" width="0.6" height="26" rx="4" fill="#3B82F6" opacity="0.9"/><text x="246" y="5974" fill="#475569" font-family="monospace" font-size="10">1 (384B)</text><rect x="240" y="5985" width="0.6" height="26" rx="4" fill="#10B981" opacity="0.9"/><text x="246" y="6005" fill="#475569" font-family="monospace" font-size="10">1 (384B)</text><text x="230" y="6046" fill="#334155" font-family="monospace" font-size="11" text-anchor="end">UserProfile_PBToModel_Parallel</text><rect x="240" y="6026" width="0.6" height="26" rx="4" fill="#3B82F6" opacity="0.9"/><text x="246" y="6046" fill="#475569" font-family="monospace" font-size="10">1 (384B)</text><rect x="240" y="6057" width="0.6" height="26" rx="4" fill="#10B981" opacity="0.9"/><text x="246" y="6077" fill="#475569" font-family="monospace" font-size="10">1 (384B)</text><text x="230" y="6118" fill="#334155" font-family="monospace" font-size="11" text-anchor="end">UserWithAddress_ModelToPB</text><rect x="240" y="6098" width="1.2" height="26" rx="4" fill="#3B82F6" opacity="0.9"/><text x="247" y="6118" fill="#475569" font-family="monospace" font-size="10">2 (128B)</text><rect x="240" y="6129" width="1.2" height="26" rx="4" fill="#10B981" opacity="0.9"/><text x="247" y="6149" fill="#475569" font-family="monospace" font-size="10">2 (128B)</text><text x="230" y="6190" fill="#334155" font-family="monospace" font-size="11" text-anchor="end">UserWithAddress_PBToModel</text><rect x="240" y="6170" width="1.2" height="26" rx="4" fill="#3B82F6" opacity="0.9"/><text x="247" y="6190" fill="#475569" font-family="monospace" font-size="10">2 (128B)</text><rect x="240" y="6201" width="1.2" height="26" rx="4" fill="#10B981" opacity="0.9"/><text x="247" y="6221" fill="#475569" font-family="monospace" font-size="10">2 (128B)</text><text x="230" y="6262" fill="#334155" font-family="monospace" font-size="11" text-anchor="end">Validator_Validate_Internal</text><rect x="240" y="6242" width="1.8" height="26" rx="4" fill="#3B82F6" opacity="0.9"/><text x="247" y="6262" fill="#475569" font-family="monospace" font-size="10">3 (40B)</text><rect x="240" y="6273" width="0.0" height="26" rx="4" fill="#10B981" opacity="0.9"/><text x="244" y="6293" fill="#475569" font-family="monospace" font-size="10">0</text><text x="230" y="6334" fill="#334155" font-family="monospace" font-size="11" text-anchor="end">WrapperField_AllTypes_ModelTo...</text><rect x="240" y="6314" width="3.0" height="26" rx="4" fill="#3B82F6" opacity="0.9"/><text x="248" y="6334" fill="#475569" font-family="monospace" font-size="10">5 (256B)</text><rect x="240" y="6345" width="3.0" height="26" rx="4" fill="#10B981" opacity="0.9"/><text x="248" y="6365" fill="#475569" font-family="monospace" font-size="10">5 (256B)</text><text x="230" y="6406" fill="#334155" font-family="monospace" font-size="11" text-anchor="end">Wrapper_ModelToPB</text><rect x="240" y="6386" width="3.0" height="26" rx="4" fill="#3B82F6" opacity="0.9"/><text x="248" y="6406" fill="#475569" font-family="monospace" font-size="10">5 (256B)</text><rect x="240" y="6417" width="3.0" height="26" rx="4" fill="#10B981" opacity="0.9"/><text x="248" y="6437" fill="#475569" font-family="monospace" font-size="10">5 (256B)</text><text x="230" y="6478" fill="#334155" font-family="monospace" font-size="11" text-anchor="end">Wrapper_PBToModel</text><rect x="240" y="6458" width="3.0" height="26" rx="4" fill="#3B82F6" opacity="0.9"/><text x="248" y="6478" fill="#475569" font-family="monospace" font-size="10">5 (80B)</text><rect x="240" y="6489" width="3.0" height="26" rx="4" fill="#10B981" opacity="0.9"/><text x="248" y="6509" fill="#475569" font-family="monospace" font-size="10">5 (80B)</text><text x="230" y="6550" fill="#334155" font-family="monospace" font-size="11" text-anchor="end">Wrapper_PBToModel_Parallel</text><rect x="240" y="6530" width="3.0" height="26" rx="4" fill="#3B82F6" opacity="0.9"/><text x="248" y="6550" fill="#475569" font-family="monospace" font-size="10">5 (80B)</text><rect x="240" y="6561" width="3.0" height="26" rx="4" fill="#10B981" opacity="0.9"/><text x="248" y="6581" fill="#475569" font-family="monospace" font-size="10">5 (80B)</text><text x="240" y="6662" fill="#94A3B8" font-family="system-ui,sans-serif" font-size="10">Lower is better ▸</text></svg>