<svg xmlns="http://www.w3.org/2000/svg" width="900" height="6672" viewBox="0 0 900 6672"><rect width="100%" height="100%" fill="#FFFFFF" rx="12"/><text x="240" y="30" fill="#1E293B" font-family="system-ui,-apple-system,sans-serif" font-size="16" font-weight="600">PBMO vs Native Latency (ns/op)</text><rect x="700" y="14" width="14" height="14" rx="3" fill="#3B82F6"/><text x="718" y="26" fill="#64748B" font-family="system-ui,sans-serif" font-size="12">PBMO</text><rect x="790" y="14" width="14" height="14" rx="3" fill="#10B981"/><text x="808" y="26" fill="#64748B" font-family="system-ui,sans-serif" font-size="12">Native</text><text x="230" y="70" fill="#334155" font-family="monospace" font-size="11" text-anchor="end">Account_ModelToPB</text><rect x="240" y="50" width="2.3" height="26" rx="4" fill="#3B82F6" opacity="0.9"/><text x="248" y="70" fill="#475569" font-family="monospace" font-size="10">150 ns</text><rect x="240" y="81" width="1.7" height="26" rx="4" fill="#10B981" opacity="0.9"/><text x="247" y="101" fill="#475569" font-family="monospace" font-size="10">111 ns (1.4x)</text><text x="230" y="142" fill="#334155" font-family="monospace" font-size="11" text-anchor="end">Account_PBToModel</text><rect x="240" y="122" width="1.3" height="26" rx="4" fill="#3B82F6" opacity="0.9"/><text x="247" y="142" fill="#475569" font-family="monospace" font-size="10">85 ns</text><rect x="240" y="153" width="0.8" height="26" rx="4" fill="#10B981" opacity="0.9"/><text x="246" y="173" fill="#475569" font-family="monospace" font-size="10">54 ns (1.6x)</text><text x="230" y="214" fill="#334155" font-family="monospace" font-size="11" text-anchor="end">AutoEnumConverter_Convert_Int...</text><rect x="240" y="194" width="0.1" height="26" rx="4" fill="#3B82F6" opacity="0.9"/><text x="246" y="214" fill="#475569" font-family="monospace" font-size="10">9 ns</text><rect x="240" y="225" width="0.1" height="26" rx="4" fill="#10B981" opacity="0.9"/><text x="246" y="245" fill="#475569" font-family="monospace" font-size="10">9 ns (1.0x)</text><text x="230" y="286" fill="#334155" font-family="monospace" font-size="11" text-anchor="end">Comprehensive_ModelToPB</text><rect x="240" y="266" width="6.2" height="26" rx="4" fill="#3B82F6" opacity="0.9"/><text x="252" y="286" fill="#475569" font-family="monospace" font-size="10">407 ns</text><rect x="240" y="297" width="7.5" height="26" rx="4" fill="#10B981" opacity="0.9"/><text x="253" y="317" fill="#475569" font-family="monospace" font-size="10">486 ns (0.8x)</text><text x="230" y="358" fill="#334155" font-family="monospace" font-size="11" text-anchor="end">Comprehensive_PBToModel</text><rect x="240" y="338" width="4.3" height="26" rx="4" fill="#3B82F6" opacity="0.9"/><text x="250" y="358" fill="#475569" font-family="monospace" font-size="10">282 ns</text><rect x="240" y="369" width="2.2" height="26" rx="4" fill="#10B981" opacity="0.9"/><text x="248" y="389" fill="#475569" font-family="monospace" font-size="10">144 ns (2.0x)</text><text x="230" y="430" fill="#334155" font-family="monospace" font-size="11" text-anchor="end">Config_ModelToPB</text><rect x="240" y="410" width="1.3" height="26" rx="4" fill="#3B82F6" opacity="0.9"/><text x="247" y="430" fill="#475569" font-family="monospace" font-size="10">83 ns</text><rect x="240" y="441" width="4.4" height="26" rx="4" fill="#10B981" opacity="0.9"/><text x="250" y="461" fill="#475569" font-family="monospace" font-size="10">284 ns (0.3x)</text><text x="230" y="502" fill="#334155" font-family="monospace" font-size="11" text-anchor="end">Config_PBToModel</text><rect x="240" y="482" width="1.4" height="26" rx="4" fill="#3B82F6" opacity="0.9"/><text x="247" y="502" fill="#475569" font-family="monospace" font-size="10">94 ns</text><rect x="240" y="513" width="1.0" height="26" rx="4" fill="#10B981" opacity="0.9"/><text x="246" y="533" fill="#475569" font-family="monospace" font-size="10">65 ns (1.4x)</text><text x="230" y="574" fill="#334155" font-family="monospace" font-size="11" text-anchor="end">DeepNested4_Batch100_PBToModel</text><rect x="240" y="554" width="331.1" height="26" rx="4" fill="#3B82F6" opacity="0.9"/><text x="577" y="574" fill="#475569" font-family="monospace" font-size="10">21575 ns</text><rect x="240" y="585" width="224.9" height="26" rx="4" fill="#10B981" opacity="0.9"/><text x="470" y="605" fill="#475569" font-family="monospace" font-size="10">14657 ns (1.5x)</text><text x="230" y="646" fill="#334155" font-family="monospace" font-size="11" text-anchor="end">DeepNested4_ModelToPB</text><rect x="240" y="626" width="4.3" height="26" rx="4" fill="#3B82F6" opacity="0.9"/><text x="250" y="646" fill="#475569" font-family="monospace" font-size="10">282 ns</text><rect x="240" y="657" width="2.6" height="26" rx="4" fill="#10B981" opacity="0.9"/><text x="248" y="677" fill="#475569" font-family="monospace" font-size="10">172 ns (1.6x)</text><text x="230" y="718" fill="#334155" font-family="monospace" font-size="11" text-anchor="end">DeepNested4_ModelToPB_Parallel</text><rect x="240" y="698" width="2.7" height="26" rx="4" fill="#3B82F6" opacity="0.9"/><text x="248" y="718" fill="#475569" font-family="monospace" font-size="10">179 ns</text><rect x="240" y="729" width="2.1" height="26" rx="4" fill="#10B981" opacity="0.9"/><text x="248" y="749" fill="#475569" font-family="monospace" font-size="10">135 ns (1.3x)</text><text x="230" y="790" fill="#334155" font-family="monospace" font-size="11" text-anchor="end">DeepNested4_PBToModel</text><rect x="240" y="770" width="3.8" height="26" rx="4" fill="#3B82F6" opacity="0.9"/><text x="249" y="790" fill="#475569" font-family="monospace" font-size="10">251 ns</text><rect x="240" y="801" width="2.2" height="26" rx="4" fill="#10B981" opacity="0.9"/><text x="248" y="821" fill="#475569" font-family="monospace" font-size="10">143 ns (1.7x)</text><text x="230" y="862" fill="#334155" font-family="monospace" font-size="11" text-anchor="end">DeepNested4_PBToModel_Parallel</text><rect x="240" y="842" width="2.3" height="26" rx="4" fill="#3B82F6" opacity="0.9"/><text x="248" y="862" fill="#475569" font-family="monospace" font-size="10">150 ns</text><rect x="240" y="873" width="1.7" height="26" rx="4" fill="#10B981" opacity="0.9"/><text x="247" y="893" fill="#475569" font-family="monospace" font-size="10">112 ns (1.3x)</text><text x="230" y="934" fill="#334155" font-family="monospace" font-size="11" text-anchor="end">Enterprise_ModelToPB</text><rect x="240" y="914" width="5.9" height="26" rx="4" fill="#3B82F6" opacity="0.9"/><text x="251" y="934" fill="#475569" font-family="monospace" font-size="10">383 ns</text><rect x="240" y="945" width="3.9" height="26" rx="4" fill="#10B981" opacity="0.9"/><text x="249" y="965" fill="#475569" font-family="monospace" font-size="10">256 ns (1.5x)</text><text x="230" y="1006" fill="#334155" font-family="monospace" font-size="11" text-anchor="end">Enterprise_PBToModel</text><rect x="240" y="986" width="4.9" height="26" rx="4" fill="#3B82F6" opacity="0.9"/><text x="250" y="1006" fill="#475569" font-family="monospace" font-size="10">322 ns</text><rect x="240" y="1017" width="3.1" height="26" rx="4" fill="#10B981" opacity="0.9"/><text x="249" y="1037" fill="#475569" font-family="monospace" font-size="10">205 ns (1.6x)</text><text x="230" y="1078" fill="#334155" font-family="monospace" font-size="11" text-anchor="end">Enterprise_PBToModel_Parallel</text><rect x="240" y="1058" width="3.5" height="26" rx="4" fill="#3B82F6" opacity="0.9"/><text x="249" y="1078" fill="#475569" font-family="monospace" font-size="10">231 ns</text><rect x="240" y="1089" width="2.8" height="26" rx="4" fill="#10B981" opacity="0.9"/><text x="248" y="1109" fill="#475569" font-family="monospace" font-size="10">182 ns (1.3x)</text><text x="230" y="1150" fill="#334155" font-family="monospace" font-size="11" text-anchor="end">EnumMapper_Map_Internal</text><rect x="240" y="1130" width="0.1" height="26" rx="4" fill="#3B82F6" opacity="0.9"/><text x="246" y="1150" fill="#475569" font-family="monospace" font-size="10">9 ns</text><rect x="240" y="1161" width="0.1" height="26" rx="4" fill="#10B981" opacity="0.9"/><text x="246" y="1181" fill="#475569" font-family="monospace" font-size="10">9 ns (0.9x)</text><text x="230" y="1222" fill="#334155" font-family="monospace" font-size="11" text-anchor="end">Full_ModelToPB</text><rect x="240" y="1202" width="4.5" height="26" rx="4" fill="#3B82F6" opacity="0.9"/><text x="250" y="1222" fill="#475569" font-family="monospace" font-size="10">292 ns</text><rect x="240" y="1233" width="3.6" height="26" rx="4" fill="#10B981" opacity="0.9"/><text x="249" y="1253" fill="#475569" font-family="monospace" font-size="10">232 ns (1.3x)</text><text x="230" y="1294" fill="#334155" font-family="monospace" font-size="11" text-anchor="end">Full_PBToModel</text><rect x="240" y="1274" width="2.7" height="26" rx="4" fill="#3B82F6" opacity="0.9"/><text x="248" y="1294" fill="#475569" font-family="monospace" font-size="10">177 ns</text><rect x="240" y="1305" width="1.8" height="26" rx="4" fill="#10B981" opacity="0.9"/><text x="247" y="1325" fill="#475569" font-family="monospace" font-size="10">118 ns (1.5x)</text><text x="230" y="1366" fill="#334155" font-family="monospace" font-size="11" text-anchor="end">Full_PBToModel_Parallel</text><rect x="240" y="1346" width="1.8" height="26" rx="4" fill="#3B82F6" opacity="0.9"/><text x="247" y="1366" fill="#475569" font-family="monospace" font-size="10">120 ns</text><rect x="240" y="1377" width="1.5" height="26" rx="4" fill="#10B981" opacity="0.9"/><text x="247" y="1397" fill="#475569" font-family="monospace" font-size="10">97 ns (1.2x)</text><text x="230" y="1438" fill="#334155" font-family="monospace" font-size="11" text-anchor="end">GenericEnumMapper_Map_Internal</text><rect x="240" y="1418" width="0.1" height="26" rx="4" fill="#3B82F6" opacity="0.9"/><text x="246" y="1438" fill="#475569" font-family="monospace" font-size="10">9 ns</text><rect x="240" y="1449" width="0.1" height="26" rx="4" fill="#10B981" opacity="0.9"/><text x="246" y="1469" fill="#475569" font-family="monospace" font-size="10">9 ns (1.0x)</text><text x="230" y="1510" fill="#334155" font-family="monospace" font-size="11" text-anchor="end">Huge100_ModelToPB</text><rect x="240" y="1490" width="14.2" height="26" rx="4" fill="#3B82F6" opacity="0.9"/><text x="260" y="1510" fill="#475569" font-family="monospace" font-size="10">928 ns</text><rect x="240" y="1521" width="9.8" height="26" rx="4" fill="#10B981" opacity="0.9"/><text x="255" y="1541" fill="#475569" font-family="monospace" font-size="10">636 ns (1.5x)</text><text x="230" y="1582" fill="#334155" font-family="monospace" font-size="11" text-anchor="end">Huge100_PBToModel</text><rect x="240" y="1562" width="13.2" height="26" rx="4" fill="#3B82F6" opacity="0.9"/><text x="259" y="1582" fill="#475569" font-family="monospace" font-size="10">857 ns</text><rect x="240" y="1593" width="7.8" height="26" rx="4" fill="#10B981" opacity="0.9"/><text x="253" y="1613" fill="#475569" font-family="monospace" font-size="10">505 ns (1.7x)</text><text x="230" y="1654" fill="#334155" font-family="monospace" font-size="11" text-anchor="end">Huge30_ModelToPB</text><rect x="240" y="1634" width="4.7" height="26" rx="4" fill="#3B82F6" opacity="0.9"/><text x="250" y="1654" fill="#475569" font-family="monospace" font-size="10">307 ns</text><rect x="240" y="1665" width="3.2" height="26" rx="4" fill="#10B981" opacity="0.9"/><text x="249" y="1685" fill="#475569" font-family="monospace" font-size="10">209 ns (1.5x)</text><text x="230" y="1726" fill="#334155" font-family="monospace" font-size="11" text-anchor="end">Huge30_PBToModel</text><rect x="240" y="1706" width="3.7" height="26" rx="4" fill="#3B82F6" opacity="0.9"/><text x="249" y="1726" fill="#475569" font-family="monospace" font-size="10">244 ns</text><rect x="240" y="1737" width="2.3" height="26" rx="4" fill="#10B981" opacity="0.9"/><text x="248" y="1757" fill="#475569" font-family="monospace" font-size="10">148 ns (1.7x)</text><text x="230" y="1798" fill="#334155" font-family="monospace" font-size="11" text-anchor="end">Huge50_ModelToPB</text><rect x="240" y="1778" width="8.5" height="26" rx="4" fill="#3B82F6" opacity="0.9"/><text x="254" y="1798" fill="#475569" font-family="monospace" font-size="10">554 ns</text><rect x="240" y="1809" width="5.9" height="26" rx="4" fill="#10B981" opacity="0.9"/><text x="251" y="1829" fill="#475569" font-family="monospace" font-size="10">386 ns (1.4x)</text><text x="230" y="1870" fill="#334155" font-family="monospace" font-size="11" text-anchor="end">Huge50_PBToModel</text><rect x="240" y="1850" width="6.9" height="26" rx="4" fill="#3B82F6" opacity="0.9"/><text x="252" y="1870" fill="#475569" font-family="monospace" font-size="10">447 ns</text><rect x="240" y="1881" width="4.0" height="26" rx="4" fill="#10B981" opacity="0.9"/><text x="250" y="1901" fill="#475569" font-family="monospace" font-size="10">264 ns (1.7x)</text><text x="230" y="1942" fill="#334155" font-family="monospace" font-size="11" text-anchor="end">Large_Batch100_PBToModel</text><rect x="240" y="1922" width="231.8" height="26" rx="4" fill="#3B82F6" opacity="0.9"/><text x="477" y="1942" fill="#475569" font-family="monospace" font-size="10">15105 ns</text><rect x="240" y="1953" width="196.0" height="26" rx="4" fill="#10B981" opacity="0.9"/><text x="442" y="1973" fill="#475569" font-family="monospace" font-size="10">12776 ns (1.2x)</text><text x="230" y="2014" fill="#334155" font-family="monospace" font-size="11" text-anchor="end">Large_ModelToPB</text><rect x="240" y="1994" width="4.5" height="26" rx="4" fill="#3B82F6" opacity="0.9"/><text x="250" y="2014" fill="#475569" font-family="monospace" font-size="10">295 ns</text><rect x="240" y="2025" width="3.3" height="26" rx="4" fill="#10B981" opacity="0.9"/><text x="249" y="2045" fill="#475569" font-family="monospace" font-size="10">215 ns (1.4x)</text><text x="230" y="2086" fill="#334155" font-family="monospace" font-size="11" text-anchor="end">Large_PBToModel</text><rect x="240" y="2066" width="3.1" height="26" rx="4" fill="#3B82F6" opacity="0.9"/><text x="249" y="2086" fill="#475569" font-family="monospace" font-size="10">202 ns</text><rect x="240" y="2097" width="1.8" height="26" rx="4" fill="#10B981" opacity="0.9"/><text x="247" y="2117" fill="#475569" font-family="monospace" font-size="10">117 ns (1.7x)</text><text x="230" y="2158" fill="#334155" font-family="monospace" font-size="11" text-anchor="end">Large_PBToModel_Parallel</text><rect x="240" y="2138" width="2.1" height="26" rx="4" fill="#3B82F6" opacity="0.9"/><text x="248" y="2158" fill="#475569" font-family="monospace" font-size="10">136 ns</text><rect x="240" y="2169" width="1.7" height="26" rx="4" fill="#10B981" opacity="0.9"/><text x="247" y="2189" fill="#475569" font-family="monospace" font-size="10">113 ns (1.2x)</text><text x="230" y="2230" fill="#334155" font-family="monospace" font-size="11" text-anchor="end">List_ModelToPB</text><rect x="240" y="2210" width="3.7" height="26" rx="4" fill="#3B82F6" opacity="0.9"/><text x="249" y="2230" fill="#475569" font-family="monospace" font-size="10">239 ns</text><rect x="240" y="2241" width="2.2" height="26" rx="4" fill="#10B981" opacity="0.9"/><text x="248" y="2261" fill="#475569" font-family="monospace" font-size="10">145 ns (1.7x)</text><text x="230" y="2302" fill="#334155" font-family="monospace" font-size="11" text-anchor="end">List_PBToModel</text><rect x="240" y="2282" width="3.8" height="26" rx="4" fill="#3B82F6" opacity="0.9"/><text x="249" y="2302" fill="#475569" font-family="monospace" font-size="10">246 ns</text><rect x="240" y="2313" width="2.2" height="26" rx="4" fill="#10B981" opacity="0.9"/><text x="248" y="2333" fill="#475569" font-family="monospace" font-size="10">146 ns (1.7x)</text><text x="230" y="2374" fill="#334155" font-family="monospace" font-size="11" text-anchor="end">Mapped_ModelToPB</text><rect x="240" y="2354" width="1.0" height="26" rx="4" fill="#3B82F6" opacity="0.9"/><text x="246" y="2374" fill="#475569" font-family="monospace" font-size="10">62 ns</text><rect x="240" y="2385" width="0.5" height="26" rx="4" fill="#10B981" opacity="0.9"/><text x="246" y="2405" fill="#475569" font-family="monospace" font-size="10">34 ns (1.9x)</text><text x="230" y="2446" fill="#334155" font-family="monospace" font-size="11" text-anchor="end">Mapped_PBToModel</text><rect x="240" y="2426" width="1.0" height="26" rx="4" fill="#3B82F6" opacity="0.9"/><text x="246" y="2446" fill="#475569" font-family="monospace" font-size="10">62 ns</text><rect x="240" y="2457" width="0.5" height="26" rx="4" fill="#10B981" opacity="0.9"/><text x="246" y="2477" fill="#475569" font-family="monospace" font-size="10">34 ns (1.8x)</text><text x="230" y="2518" fill="#334155" font-family="monospace" font-size="11" text-anchor="end">Mapped_WithFieldMapping_Model...</text><rect x="240" y="2498" width="0.9" height="26" rx="4" fill="#3B82F6" opacity="0.9"/><text x="246" y="2518" fill="#475569" font-family="monospace" font-size="10">56 ns</text><rect x="240" y="2529" width="0.5" height="26" rx="4" fill="#10B981" opacity="0.9"/><text x="246" y="2549" fill="#475569" font-family="monospace" font-size="10">33 ns (1.7x)</text><text x="230" y="2590" fill="#334155" font-family="monospace" font-size="11" text-anchor="end">Mapped_WithFieldMapping_PBToM...</text><rect x="240" y="2570" width="0.9" height="26" rx="4" fill="#3B82F6" opacity="0.9"/><text x="246" y="2590" fill="#475569" font-family="monospace" font-size="10">56 ns</text><rect x="240" y="2601" width="0.5" height="26" rx="4" fill="#10B981" opacity="0.9"/><text x="246" y="2621" fill="#475569" font-family="monospace" font-size="10">33 ns (1.7x)</text><text x="230" y="2662" fill="#334155" font-family="monospace" font-size="11" text-anchor="end">Medium_ModelToPB</text><rect x="240" y="2642" width="1.3" height="26" rx="4" fill="#3B82F6" opacity="0.9"/><text x="247" y="2662" fill="#475569" font-family="monospace" font-size="10">84 ns</text><rect x="240" y="2673" width="0.7" height="26" rx="4" fill="#10B981" opacity="0.9"/><text x="246" y="2693" fill="#475569" font-family="monospace" font-size="10">48 ns (1.7x)</text><text x="230" y="2734" fill="#334155" font-family="monospace" font-size="11" text-anchor="end">Medium_PBToModel</text><rect x="240" y="2714" width="1.3" height="26" rx="4" fill="#3B82F6" opacity="0.9"/><text x="247" y="2734" fill="#475569" font-family="monospace" font-size="10">85 ns</text><rect x="240" y="2745" width="0.7" height="26" rx="4" fill="#10B981" opacity="0.9"/><text x="246" y="2765" fill="#475569" font-family="monospace" font-size="10">48 ns (1.8x)</text><text x="230" y="2806" fill="#334155" font-family="monospace" font-size="11" text-anchor="end">Medium_PBToModel_Parallel</text><rect x="240" y="2786" width="0.8" height="26" rx="4" fill="#3B82F6" opacity="0.9"/><text x="246" y="2806" fill="#475569" font-family="monospace" font-size="10">54 ns</text><rect x="240" y="2817" width="0.7" height="26" rx="4" fill="#10B981" opacity="0.9"/><text x="246" y="2837" fill="#475569" font-family="monospace" font-size="10">43 ns (1.2x)</text><text x="230" y="2878" fill="#334155" font-family="monospace" font-size="11" text-anchor="end">Member_ModelToPB</text><rect x="240" y="2858" width="3.5" height="26" rx="4" fill="#3B82F6" opacity="0.9"/><text x="249" y="2878" fill="#475569" font-family="monospace" font-size="10">226 ns</text><rect x="240" y="2889" width="2.6" height="26" rx="4" fill="#10B981" opacity="0.9"/><text x="248" y="2909" fill="#475569" font-family="monospace" font-size="10">173 ns (1.3x)</text><text x="230" y="2950" fill="#334155" font-family="monospace" font-size="11" text-anchor="end">Member_PBToModel</text><rect x="240" y="2930" width="2.2" height="26" rx="4" fill="#3B82F6" opacity="0.9"/><text x="248" y="2950" fill="#475569" font-family="monospace" font-size="10">145 ns</text><rect x="240" y="2961" width="1.4" height="26" rx="4" fill="#10B981" opacity="0.9"/><text x="247" y="2981" fill="#475569" font-family="monospace" font-size="10">90 ns (1.6x)</text><text x="230" y="3022" fill="#334155" font-family="monospace" font-size="11" text-anchor="end">Metadata_ModelToPB</text><rect x="240" y="3002" width="0.9" height="26" rx="4" fill="#3B82F6" opacity="0.9"/><text x="246" y="3022" fill="#475569" font-family="monospace" font-size="10">56 ns</text><rect x="240" y="3033" width="0.4" height="26" rx="4" fill="#10B981" opacity="0.9"/><text x="246" y="3053" fill="#475569" font-family="monospace" font-size="10">27 ns (2.0x)</text><text x="230" y="3094" fill="#334155" font-family="monospace" font-size="11" text-anchor="end">Metadata_PBToModel</text><rect x="240" y="3074" width="0.9" height="26" rx="4" fill="#3B82F6" opacity="0.9"/><text x="246" y="3094" fill="#475569" font-family="monospace" font-size="10">56 ns</text><rect x="240" y="3105" width="0.4" height="26" rx="4" fill="#10B981" opacity="0.9"/><text x="246" y="3125" fill="#475569" font-family="monospace" font-size="10">28 ns (2.0x)</text><text x="230" y="3166" fill="#334155" font-family="monospace" font-size="11" text-anchor="end">NamedSlice_ModelToPB</text><rect x="240" y="3146" width="1.0" height="26" rx="4" fill="#3B82F6" opacity="0.9"/><text x="247" y="3166" fill="#475569" font-family="monospace" font-size="10">68 ns</text><rect x="240" y="3177" width="0.6" height="26" rx="4" fill="#10B981" opacity="0.9"/><text x="246" y="3197" fill="#475569" font-family="monospace" font-size="10">41 ns (1.7x)</text><text x="230" y="3238" fill="#334155" font-family="monospace" font-size="11" text-anchor="end">NamedSlice_PBToModel</text><rect x="240" y="3218" width="1.1" height="26" rx="4" fill="#3B82F6" opacity="0.9"/><text x="247" y="3238" fill="#475569" font-family="monospace" font-size="10">69 ns</text><rect x="240" y="3249" width="0.6" height="26" rx="4" fill="#10B981" opacity="0.9"/><text x="246" y="3269" fill="#475569" font-family="monospace" font-size="10">41 ns (1.7x)</text><text x="230" y="3310" fill="#334155" font-family="monospace" font-size="11" text-anchor="end">NewBidiConverter_Internal</text><rect x="240" y="3290" width="4.3" height="26" rx="4" fill="#3B82F6" opacity="0.9"/><text x="250" y="3310" fill="#475569" font-family="monospace" font-size="10">283 ns</text><rect x="240" y="3321" width="0.0" height="26" rx="4" fill="#10B981" opacity="0.9"/><text x="246" y="3341" fill="#475569" font-family="monospace" font-size="10">2 ns (129.7x)</text><text x="230" y="3382" fill="#334155" font-family="monospace" font-size="11" text-anchor="end">NewBidiConverter_WithOptions_...</text><rect x="240" y="3362" width="6.3" height="26" rx="4" fill="#3B82F6" opacity="0.9"/><text x="252" y="3382" fill="#475569" font-family="monospace" font-size="10">407 ns</text><rect x="240" y="3393" width="2.2" height="26" rx="4" fill="#10B981" opacity="0.9"/><text x="248" y="3413" fill="#475569" font-family="monospace" font-size="10">141 ns (2.9x)</text><text x="230" y="3454" fill="#334155" font-family="monospace" font-size="11" text-anchor="end">Organization_ModelToPB</text><rect x="240" y="3434" width="5.0" height="26" rx="4" fill="#3B82F6" opacity="0.9"/><text x="251" y="3454" fill="#475569" font-family="monospace" font-size="10">326 ns</text><rect x="240" y="3465" width="3.8" height="26" rx="4" fill="#10B981" opacity="0.9"/><text x="249" y="3485" fill="#475569" font-family="monospace" font-size="10">246 ns (1.3x)</text><text x="230" y="3526" fill="#334155" font-family="monospace" font-size="11" text-anchor="end">Organization_PBToModel</text><rect x="240" y="3506" width="3.1" height="26" rx="4" fill="#3B82F6" opacity="0.9"/><text x="249" y="3526" fill="#475569" font-family="monospace" font-size="10">201 ns</text><rect x="240" y="3537" width="1.9" height="26" rx="4" fill="#10B981" opacity="0.9"/><text x="247" y="3557" fill="#475569" font-family="monospace" font-size="10">123 ns (1.6x)</text><text x="230" y="3598" fill="#334155" font-family="monospace" font-size="11" text-anchor="end">Outer_ModelToPB</text><rect x="240" y="3578" width="2.1" height="26" rx="4" fill="#3B82F6" opacity="0.9"/><text x="248" y="3598" fill="#475569" font-family="monospace" font-size="10">135 ns</text><rect x="240" y="3609" width="1.3" height="26" rx="4" fill="#10B981" opacity="0.9"/><text x="247" y="3629" fill="#475569" font-family="monospace" font-size="10">83 ns (1.6x)</text><text x="230" y="3670" fill="#334155" font-family="monospace" font-size="11" text-anchor="end">Outer_PBToModel</text><rect x="240" y="3650" width="2.1" height="26" rx="4" fill="#3B82F6" opacity="0.9"/><text x="248" y="3670" fill="#475569" font-family="monospace" font-size="10">136 ns</text><rect x="240" y="3681" width="1.3" height="26" rx="4" fill="#10B981" opacity="0.9"/><text x="247" y="3701" fill="#475569" font-family="monospace" font-size="10">82 ns (1.6x)</text><text x="230" y="3742" fill="#334155" font-family="monospace" font-size="11" text-anchor="end">Outer_PBToModel_Parallel</text><rect x="240" y="3722" width="1.2" height="26" rx="4" fill="#3B82F6" opacity="0.9"/><text x="247" y="3742" fill="#475569" font-family="monospace" font-size="10">78 ns</text><rect x="240" y="3753" width="0.9" height="26" rx="4" fill="#10B981" opacity="0.9"/><text x="246" y="3773" fill="#475569" font-family="monospace" font-size="10">56 ns (1.4x)</text><text x="230" y="3814" fill="#334155" font-family="monospace" font-size="11" text-anchor="end">Product_ModelToPB</text><rect x="240" y="3794" width="7.7" height="26" rx="4" fill="#3B82F6" opacity="0.9"/><text x="253" y="3814" fill="#475569" font-family="monospace" font-size="10">502 ns</text><rect x="240" y="3825" width="5.3" height="26" rx="4" fill="#10B981" opacity="0.9"/><text x="251" y="3845" fill="#475569" font-family="monospace" font-size="10">344 ns (1.5x)</text><text x="230" y="3886" fill="#334155" font-family="monospace" font-size="11" text-anchor="end">Product_PBToModel</text><rect x="240" y="3866" width="4.3" height="26" rx="4" fill="#3B82F6" opacity="0.9"/><text x="250" y="3886" fill="#475569" font-family="monospace" font-size="10">281 ns</text><rect x="240" y="3897" width="2.5" height="26" rx="4" fill="#10B981" opacity="0.9"/><text x="248" y="3917" fill="#475569" font-family="monospace" font-size="10">160 ns (1.8x)</text><text x="230" y="3958" fill="#334155" font-family="monospace" font-size="11" text-anchor="end">Registry_Lookup_Internal</text><rect x="240" y="3938" width="3.6" height="26" rx="4" fill="#3B82F6" opacity="0.9"/><text x="249" y="3958" fill="#475569" font-family="monospace" font-size="10">232 ns</text><rect x="240" y="3969" width="0.4" height="26" rx="4" fill="#10B981" opacity="0.9"/><text x="246" y="3989" fill="#475569" font-family="monospace" font-size="10">24 ns (9.5x)</text><text x="230" y="4030" fill="#334155" font-family="monospace" font-size="11" text-anchor="end">Registry_Register_Internal</text><rect x="240" y="4010" width="8.2" height="26" rx="4" fill="#3B82F6" opacity="0.9"/><text x="254" y="4030" fill="#475569" font-family="monospace" font-size="10">536 ns</text><rect x="240" y="4041" width="1.0" height="26" rx="4" fill="#10B981" opacity="0.9"/><text x="247" y="4061" fill="#475569" font-family="monospace" font-size="10">67 ns (8.0x)</text><text x="230" y="4102" fill="#334155" font-family="monospace" font-size="11" text-anchor="end">SafeBatchConvert100_PBToModel...</text><rect x="240" y="4082" width="65.2" height="26" rx="4" fill="#3B82F6" opacity="0.9"/><text x="311" y="4102" fill="#475569" font-family="monospace" font-size="10">4251 ns</text><rect x="240" y="4113" width="56.9" height="26" rx="4" fill="#10B981" opacity="0.9"/><text x="302" y="4133" fill="#475569" font-family="monospace" font-size="10">3706 ns (1.1x)</text><text x="230" y="4174" fill="#334155" font-family="monospace" font-size="11" text-anchor="end">SafeConverter_SafeConvertPBTo...</text><rect x="240" y="4154" width="0.9" height="26" rx="4" fill="#3B82F6" opacity="0.9"/><text x="246" y="4174" fill="#475569" font-family="monospace" font-size="10">59 ns</text><rect x="240" y="4185" width="0.5" height="26" rx="4" fill="#10B981" opacity="0.9"/><text x="246" y="4205" fill="#475569" font-family="monospace" font-size="10">34 ns (1.8x)</text><text x="230" y="4246" fill="#334155" font-family="monospace" font-size="11" text-anchor="end">ScoreBoard_ModelToPB</text><rect x="240" y="4226" width="4.1" height="26" rx="4" fill="#3B82F6" opacity="0.9"/><text x="250" y="4246" fill="#475569" font-family="monospace" font-size="10">264 ns</text><rect x="240" y="4257" width="2.3" height="26" rx="4" fill="#10B981" opacity="0.9"/><text x="248" y="4277" fill="#475569" font-family="monospace" font-size="10">150 ns (1.8x)</text><text x="230" y="4318" fill="#334155" font-family="monospace" font-size="11" text-anchor="end">ScoreBoard_PBToModel</text><rect x="240" y="4298" width="2.7" height="26" rx="4" fill="#3B82F6" opacity="0.9"/><text x="248" y="4318" fill="#475569" font-family="monospace" font-size="10">173 ns</text><rect x="240" y="4329" width="1.3" height="26" rx="4" fill="#10B981" opacity="0.9"/><text x="247" y="4349" fill="#475569" font-family="monospace" font-size="10">83 ns (2.1x)</text><text x="230" y="4390" fill="#334155" font-family="monospace" font-size="11" text-anchor="end">ServiceConfig_ModelToPB</text><rect x="240" y="4370" width="3.2" height="26" rx="4" fill="#3B82F6" opacity="0.9"/><text x="249" y="4390" fill="#475569" font-family="monospace" font-size="10">209 ns</text><rect x="240" y="4401" width="2.4" height="26" rx="4" fill="#10B981" opacity="0.9"/><text x="248" y="4421" fill="#475569" font-family="monospace" font-size="10">159 ns (1.3x)</text><text x="230" y="4462" fill="#334155" font-family="monospace" font-size="11" text-anchor="end">ServiceConfig_PBToModel</text><rect x="240" y="4442" width="2.0" height="26" rx="4" fill="#3B82F6" opacity="0.9"/><text x="247" y="4462" fill="#475569" font-family="monospace" font-size="10">129 ns</text><rect x="240" y="4473" width="1.2" height="26" rx="4" fill="#10B981" opacity="0.9"/><text x="247" y="4493" fill="#475569" font-family="monospace" font-size="10">79 ns (1.6x)</text><text x="230" y="4534" fill="#334155" font-family="monospace" font-size="11" text-anchor="end">Simple_Batch1000_PBToModel</text><rect x="240" y="4514" width="397.2" height="26" rx="4" fill="#3B82F6" opacity="0.9"/><text x="643" y="4534" fill="#475569" font-family="monospace" font-size="10">25885 ns</text><rect x="240" y="4545" width="600.0" height="26" rx="4" fill="#10B981" opacity="0.9"/><text x="846" y="4565" fill="#475569" font-family="monospace" font-size="10">39101 ns (0.7x)</text><text x="230" y="4606" fill="#334155" font-family="monospace" font-size="11" text-anchor="end">Simple_Batch100_PBToModel</text><rect x="240" y="4586" width="39.8" height="26" rx="4" fill="#3B82F6" opacity="0.9"/><text x="285" y="4606" fill="#475569" font-family="monospace" font-size="10">2594 ns</text><rect x="240" y="4617" width="57.9" height="26" rx="4" fill="#10B981" opacity="0.9"/><text x="303" y="4637" fill="#475569" font-family="monospace" font-size="10">3773 ns (0.7x)</text><text x="230" y="4678" fill="#334155" font-family="monospace" font-size="11" text-anchor="end">Simple_BatchConvert100_ModelT...</text><rect x="240" y="4658" width="43.2" height="26" rx="4" fill="#3B82F6" opacity="0.9"/><text x="289" y="4678" fill="#475569" font-family="monospace" font-size="10">2813 ns</text><rect x="240" y="4689" width="30.0" height="26" rx="4" fill="#10B981" opacity="0.9"/><text x="276" y="4709" fill="#475569" font-family="monospace" font-size="10">1956 ns (1.4x)</text><text x="230" y="4750" fill="#334155" font-family="monospace" font-size="11" text-anchor="end">Simple_BatchConvert100_PBToMo...</text><rect x="240" y="4730" width="43.2" height="26" rx="4" fill="#3B82F6" opacity="0.9"/><text x="289" y="4750" fill="#475569" font-family="monospace" font-size="10">2815 ns</text><rect x="240" y="4761" width="29.1" height="26" rx="4" fill="#10B981" opacity="0.9"/><text x="275" y="4781" fill="#475569" font-family="monospace" font-size="10">1898 ns (1.5x)</text><text x="230" y="4822" fill="#334155" font-family="monospace" font-size="11" text-anchor="end">Simple_ModelToPB</text><rect x="240" y="4802" width="1.0" height="26" rx="4" fill="#3B82F6" opacity="0.9"/><text x="246" y="4822" fill="#475569" font-family="monospace" font-size="10">64 ns</text><rect x="240" y="4833" width="0.5" height="26" rx="4" fill="#10B981" opacity="0.9"/><text x="246" y="4853" fill="#475569" font-family="monospace" font-size="10">34 ns (1.9x)</text><text x="230" y="4894" fill="#334155" font-family="monospace" font-size="11" text-anchor="end">Simple_PBToModel</text><rect x="240" y="4874" width="1.0" height="26" rx="4" fill="#3B82F6" opacity="0.9"/><text x="246" y="4894" fill="#475569" font-family="monospace" font-size="10">64 ns</text><rect x="240" y="4905" width="0.5" height="26" rx="4" fill="#10B981" opacity="0.9"/><text x="246" y="4925" fill="#475569" font-family="monospace" font-size="10">34 ns (1.9x)</text><text x="230" y="4966" fill="#334155" font-family="monospace" font-size="11" text-anchor="end">Simple_PBToModel_Parallel</text><rect x="240" y="4946" width="0.6" height="26" rx="4" fill="#3B82F6" opacity="0.9"/><text x="246" y="4966" fill="#475569" font-family="monospace" font-size="10">37 ns</text><rect x="240" y="4977" width="0.4" height="26" rx="4" fill="#10B981" opacity="0.9"/><text x="246" y="4997" fill="#475569" font-family="monospace" font-size="10">28 ns (1.3x)</text><text x="230" y="5038" fill="#334155" font-family="monospace" font-size="11" text-anchor="end">Simple_PBToModel_Parallel_Int...</text><rect x="240" y="5018" width="0.5" height="26" rx="4" fill="#3B82F6" opacity="0.9"/><text x="246" y="5038" fill="#475569" font-family="monospace" font-size="10">35 ns</text><rect x="240" y="5049" width="0.4" height="26" rx="4" fill="#10B981" opacity="0.9"/><text x="246" y="5069" fill="#475569" font-family="monospace" font-size="10">26 ns (1.3x)</text><text x="230" y="5110" fill="#334155" font-family="monospace" font-size="11" text-anchor="end">Simple_WithTransformer_PBToMo...</text><rect x="240" y="5090" width="4.6" height="26" rx="4" fill="#3B82F6" opacity="0.9"/><text x="250" y="5110" fill="#475569" font-family="monospace" font-size="10">301 ns</text><rect x="240" y="5121" width="2.0" height="26" rx="4" fill="#10B981" opacity="0.9"/><text x="247" y="5141" fill="#475569" font-family="monospace" font-size="10">128 ns (2.4x)</text><text x="230" y="5182" fill="#334155" font-family="monospace" font-size="11" text-anchor="end">Store_ModelToPB</text><rect x="240" y="5162" width="4.2" height="26" rx="4" fill="#3B82F6" opacity="0.9"/><text x="250" y="5182" fill="#475569" font-family="monospace" font-size="10">272 ns</text><rect x="240" y="5193" width="2.9" height="26" rx="4" fill="#10B981" opacity="0.9"/><text x="248" y="5213" fill="#475569" font-family="monospace" font-size="10">187 ns (1.5x)</text><text x="230" y="5254" fill="#334155" font-family="monospace" font-size="11" text-anchor="end">Store_PBToModel</text><rect x="240" y="5234" width="3.3" height="26" rx="4" fill="#3B82F6" opacity="0.9"/><text x="249" y="5254" fill="#475569" font-family="monospace" font-size="10">215 ns</text><rect x="240" y="5265" width="2.1" height="26" rx="4" fill="#10B981" opacity="0.9"/><text x="248" y="5285" fill="#475569" font-family="monospace" font-size="10">134 ns (1.6x)</text><text x="230" y="5326" fill="#334155" font-family="monospace" font-size="11" text-anchor="end">TimePtr_ModelToPB</text><rect x="240" y="5306" width="1.6" height="26" rx="4" fill="#3B82F6" opacity="0.9"/><text x="247" y="5326" fill="#475569" font-family="monospace" font-size="10">101 ns</text><rect x="240" y="5337" width="1.0" height="26" rx="4" fill="#10B981" opacity="0.9"/><text x="247" y="5357" fill="#475569" font-family="monospace" font-size="10">68 ns (1.5x)</text><text x="230" y="5398" fill="#334155" font-family="monospace" font-size="11" text-anchor="end">TimePtr_PBToModel</text><rect x="240" y="5378" width="1.9" height="26" rx="4" fill="#3B82F6" opacity="0.9"/><text x="247" y="5398" fill="#475569" font-family="monospace" font-size="10">123 ns</text><rect x="240" y="5409" width="1.4" height="26" rx="4" fill="#10B981" opacity="0.9"/><text x="247" y="5429" fill="#475569" font-family="monospace" font-size="10">90 ns (1.4x)</text><text x="230" y="5470" fill="#334155" font-family="monospace" font-size="11" text-anchor="end">TimeZeroValidValue_ModelToPB_...</text><rect x="240" y="5450" width="2.1" height="26" rx="4" fill="#3B82F6" opacity="0.9"/><text x="248" y="5470" fill="#475569" font-family="monospace" font-size="10">136 ns</text><rect x="240" y="5481" width="1.5" height="26" rx="4" fill="#10B981" opacity="0.9"/><text x="247" y="5501" fill="#475569" font-family="monospace" font-size="10">100 ns (1.4x)</text><text x="230" y="5542" fill="#334155" font-family="monospace" font-size="11" text-anchor="end">TimeZeroZeroValue_ModelToPB_I...</text><rect x="240" y="5522" width="1.0" height="26" rx="4" fill="#3B82F6" opacity="0.9"/><text x="246" y="5542" fill="#475569" font-family="monospace" font-size="10">64 ns</text><rect x="240" y="5553" width="0.5" height="26" rx="4" fill="#10B981" opacity="0.9"/><text x="246" y="5573" fill="#475569" font-family="monospace" font-size="10">29 ns (2.2x)</text><text x="230" y="5614" fill="#334155" font-family="monospace" font-size="11" text-anchor="end">TimeZero_ModelToPB</text><rect x="240" y="5594" width="2.2" height="26" rx="4" fill="#3B82F6" opacity="0.9"/><text x="248" y="5614" fill="#475569" font-family="monospace" font-size="10">143 ns</text><rect x="240" y="5625" width="1.6" height="26" rx="4" fill="#10B981" opacity="0.9"/><text x="247" y="5645" fill="#475569" font-family="monospace" font-size="10">107 ns (1.3x)</text><text x="230" y="5686" fill="#334155" font-family="monospace" font-size="11" text-anchor="end">TimeZero_PBToModel</text><rect x="240" y="5666" width="1.1" height="26" rx="4" fill="#3B82F6" opacity="0.9"/><text x="247" y="5686" fill="#475569" font-family="monospace" font-size="10">74 ns</text><rect x="240" y="5697" width="0.7" height="26" rx="4" fill="#10B981" opacity="0.9"/><text x="246" y="5717" fill="#475569" font-family="monospace" font-size="10">44 ns (1.7x)</text><text x="230" y="5758" fill="#334155" font-family="monospace" font-size="11" text-anchor="end">TransformerRegistry_Apply_Int...</text><rect x="240" y="5738" width="2.3" height="26" rx="4" fill="#3B82F6" opacity="0.9"/><text x="248" y="5758" fill="#475569" font-family="monospace" font-size="10">153 ns</text><rect x="240" y="5769" width="1.9" height="26" rx="4" fill="#10B981" opacity="0.9"/><text x="247" y="5789" fill="#475569" font-family="monospace" font-size="10">125 ns (1.2x)</text><text x="230" y="5830" fill="#334155" font-family="monospace" font-size="11" text-anchor="end">TransformerRegistry_Count_Int...</text><rect x="240" y="5810" width="0.0" height="26" rx="4" fill="#3B82F6" opacity="0.9"/><text x="246" y="5830" fill="#475569" font-family="monospace" font-size="10">1 ns</text><rect x="240" y="5841" width="0.0" height="26" rx="4" fill="#10B981" opacity="0.9"/><text x="246" y="5861" fill="#475569" font-family="monospace" font-size="10">1 ns (1.0x)</text><text x="230" y="5902" fill="#334155" font-family="monospace" font-size="11" text-anchor="end">UserProfile_ModelToPB</text><rect x="240" y="5882" width="4.2" height="26" rx="4" fill="#3B82F6" opacity="0.9"/><text x="250" y="5902" fill="#475569" font-family="monospace" font-size="10">271 ns</text><rect x="240" y="5913" width="2.7" height="26" rx="4" fill="#10B981" opacity="0.9"/><text x="248" y="5933" fill="#475569" font-family="monospace" font-size="10">173 ns (1.6x)</text><text x="230" y="5974" fill="#334155" font-family="monospace" font-size="11" text-anchor="end">UserProfile_PBToModel</text><rect x="240" y="5954" width="3.3" height="26" rx="4" fill="#3B82F6" opacity="0.9"/><text x="249" y="5974" fill="#475569" font-family="monospace" font-size="10">214 ns</text><rect x="240" y="5985" width="1.9" height="26" rx="4" fill="#10B981" opacity="0.9"/><text x="247" y="6005" fill="#475569" font-family="monospace" font-size="10">123 ns (1.7x)</text><text x="230" y="6046" fill="#334155" font-family="monospace" font-size="11" text-anchor="end">UserProfile_PBToModel_Parallel</text><rect x="240" y="6026" width="2.5" height="26" rx="4" fill="#3B82F6" opacity="0.9"/><text x="248" y="6046" fill="#475569" font-family="monospace" font-size="10">166 ns</text><rect x="240" y="6057" width="2.1" height="26" rx="4" fill="#10B981" opacity="0.9"/><text x="248" y="6077" fill="#475569" font-family="monospace" font-size="10">137 ns (1.2x)</text><text x="230" y="6118" fill="#334155" font-family="monospace" font-size="11" text-anchor="end">UserWithAddress_ModelToPB</text><rect x="240" y="6098" width="2.0" height="26" rx="4" fill="#3B82F6" opacity="0.9"/><text x="248" y="6118" fill="#475569" font-family="monospace" font-size="10">130 ns</text><rect x="240" y="6129" width="1.2" height="26" rx="4" fill="#10B981" opacity="0.9"/><text x="247" y="6149" fill="#475569" font-family="monospace" font-size="10">80 ns (1.6x)</text><text x="230" y="6190" fill="#334155" font-family="monospace" font-size="11" text-anchor="end">UserWithAddress_PBToModel</text><rect x="240" y="6170" width="2.2" height="26" rx="4" fill="#3B82F6" opacity="0.9"/><text x="248" y="6190" fill="#475569" font-family="monospace" font-size="10">141 ns</text><rect x="240" y="6201" width="1.2" height="26" rx="4" fill="#10B981" opacity="0.9"/><text x="247" y="6221" fill="#475569" font-family="monospace" font-size="10">79 ns (1.8x)</text><text x="230" y="6262" fill="#334155" font-family="monospace" font-size="11" text-anchor="end">Validator_Validate_Internal</text><rect x="240" y="6242" width="5.4" height="26" rx="4" fill="#3B82F6" opacity="0.9"/><text x="251" y="6262" fill="#475569" font-family="monospace" font-size="10">352 ns</text><rect x="240" y="6273" width="0.0" height="26" rx="4" fill="#10B981" opacity="0.9"/><text x="246" y="6293" fill="#475569" font-family="monospace" font-size="10">1 ns (376.1x)</text><text x="230" y="6334" fill="#334155" font-family="monospace" font-size="11" text-anchor="end">WrapperField_AllTypes_ModelTo...</text><rect x="240" y="6314" width="3.1" height="26" rx="4" fill="#3B82F6" opacity="0.9"/><text x="249" y="6334" fill="#475569" font-family="monospace" font-size="10">203 ns</text><rect x="240" y="6345" width="2.6" height="26" rx="4" fill="#10B981" opacity="0.9"/><text x="248" y="6365" fill="#475569" font-family="monospace" font-size="10">170 ns (1.2x)</text><text x="230" y="6406" fill="#334155" font-family="monospace" font-size="11" text-anchor="end">Wrapper_ModelToPB</text><rect x="240" y="6386" width="3.2" height="26" rx="4" fill="#3B82F6" opacity="0.9"/><text x="249" y="6406" fill="#475569" font-family="monospace" font-size="10">211 ns</text><rect x="240" y="6417" width="2.7" height="26" rx="4" fill="#10B981" opacity="0.9"/><text x="248" y="6437" fill="#475569" font-family="monospace" font-size="10">178 ns (1.2x)</text><text x="230" y="6478" fill="#334155" font-family="monospace" font-size="11" text-anchor="end">Wrapper_PBToModel</text><rect x="240" y="6458" width="2.0" height="26" rx="4" fill="#3B82F6" opacity="0.9"/><text x="247" y="6478" fill="#475569" font-family="monospace" font-size="10">130 ns</text><rect x="240" y="6489" width="1.5" height="26" rx="4" fill="#10B981" opacity="0.9"/><text x="247" y="6509" fill="#475569" font-family="monospace" font-size="10">97 ns (1.3x)</text><text x="230" y="6550" fill="#334155" font-family="monospace" font-size="11" text-anchor="end">Wrapper_PBToModel_Parallel</text><rect x="240" y="6530" width="1.2" height="26" rx="4" fill="#3B82F6" opacity="0.9"/><text x="247" y="6550" fill="#475569" font-family="monospace" font-size="10">80 ns</text><rect x="240" y="6561" width="1.0" height="26" rx="4" fill="#10B981" opacity="0.9"/><text x="247" y="6581" fill="#475569" font-family="monospace" font-size="10">66 ns (1.2x)</text><text x="240" y="6662" fill="#94A3B8" font-family="system-ui,sans-serif" font-size="10">Lower is better ▸</text></svg>